# xmcd CD database file
#
# Track frame offsets:
#	150
#	14474
#	28648
#	44847
#	64047
#	81672
#	97946
#	117295
#	129145
#	145719
#	164543
#
# Disc length: 2462 seconds
#
# Revision: 0
# Processed by: cddbd v1.5.1PL2 Copyright (c) Steve Scherf et al.
# Submitted via: CDex 1.51
#
DISCID=92099c0b
DTITLE=Suger Babe - Live Rare Tracks 1974〜1976 Part.1
DYEAR=2005
DGENRE=Pop
TTITLE0=想い (1974.04.16 池袋シアターグリーン「ボーボーズコンサート」)
TTITLE1=いつも通り (1974.04.16 池袋シアターグリーン「ボーボーズコンサート」)
TTITLE2=SHOW (1975.05.21 FM東京スタジオ)
TTITLE3=DOWN TOWN (1975.05.21 FM東京スタジオ)
TTITLE4=風の世界 (1975.05.21 FM東京スタジオ)
TTITLE5=こぬか雨 (1975.05.21 FM東京スタジオ)
TTITLE6=YUMIN' (1975.05.21 FM東京スタジオ)
TTITLE7=ココナツ・ホリデー (1975.05.21 FM東京スタジオ)
TTITLE8=SHOW (1975.12.23 新宿厚生年金会館小ホール「クリスマス・コンサート'75」)
TTITLE9=DOWN TOWN (1976.02.24 都市センターホール「音協スター・ライズ・コンサート」)
TTITLE10=パレード (1976.02.01 荻窪ロフト「シュガーベイブ解散コンサート」)
EXTD=YEAR: 2005
EXTT0=
EXTT1=
EXTT2=
EXTT3=
EXTT4=
EXTT5=
EXTT6=
EXTT7=
EXTT8=
EXTT9=
EXTT10=
PLAYORDER=
